<?xml version="1.0" encoding="UTF-8"?><svg id="Layer_2" xmlns="http://www.w3.org/2000/svg" xmlns:xlink="http://www.w3.org/1999/xlink" viewBox="0 0 34 30"><defs><style>.cls-1{fill:none;}.cls-2{clip-path:url(#clippath);}.cls-3{fill:#fad201;}.cls-4{fill:#e5be01;}.cls-5{fill:#00a1de;}.cls-6{fill:#20603d;}</style><clipPath id="clippath"><rect class="cls-1" width="34" height="30"/></clipPath></defs><g id="Layer_1-2"><g id="kiny"><g class="cls-2"><g><path class="cls-6" d="M-8.87,0H36.13V30H-8.87V0Z"/><path class="cls-3" d="M-8.87,0H36.13V22.5H-8.87V0Z"/><path class="cls-5" d="M-8.87,0H36.13V15H-8.87V0Z"/><g><g id="A"><g id="B"><path class="cls-4" d="M32.91,7.84l-3.35,.2,3.19,1.06-3.29-.68,2.8,1.84-3-1.51,2.23,2.51-2.51-2.23,1.51,3-1.84-2.8,.68,3.29-1.06-3.19-.2,3.35-.04-4.88,4.88,.04Z"/></g><g id="B-2"><path class="cls-4" d="M32.91,7.84l-3.35-.2,3.19-1.06-3.29,.68,2.8-1.84-3,1.51,2.23-2.51-2.51,2.23,1.51-3-1.84,2.8,.68-3.29-1.06,3.19-.2-3.35-.04,4.88,4.88-.04Z"/></g></g><g id="A-2"><g id="B-3"><path class="cls-4" d="M23.23,7.84l3.35,.2-3.19,1.06,3.29-.68-2.8,1.84,3-1.51-2.23,2.51,2.51-2.23-1.51,3,1.84-2.8-.68,3.29,1.06-3.19,.2,3.35,.04-4.88-4.88,.04Z"/></g><g id="B-4"><path class="cls-4" d="M23.23,7.84l3.35-.2-3.19-1.06,3.29,.68-2.8-1.84,3,1.51-2.23-2.51,2.51,2.23-1.51-3,1.84,2.8-.68-3.29,1.06,3.19,.2-3.35,.04,4.88-4.88-.04Z"/></g></g><g><circle class="cls-4" cx="28.07" cy="7.84" r="1.43"/><path class="cls-5" d="M28.07,9.34c-.83,0-1.5-.67-1.5-1.5s.67-1.5,1.5-1.5,1.5,.67,1.5,1.5-.67,1.5-1.5,1.5Zm0-2.86c-.75,0-1.36,.61-1.36,1.36s.61,1.36,1.36,1.36,1.36-.61,1.36-1.36-.61-1.36-1.36-1.36Z"/></g></g></g></g></g></g></svg>