<?xml version="1.0" encoding="UTF-8"?><svg id="Layer_2" xmlns="http://www.w3.org/2000/svg" xmlns:xlink="http://www.w3.org/1999/xlink" viewBox="0 0 34 30"><defs><style>.cls-1{fill:none;}.cls-2{clip-path:url(#clippath);}.cls-3{fill:#012169;}.cls-4{fill:#fff;}.cls-5{fill:#c8102e;}.cls-6{clip-path:url(#clippath-1);}.cls-7{clip-path:url(#clippath-2);}</style><clipPath id="clippath"><rect class="cls-1" width="34" height="30"/></clipPath><clipPath id="clippath-1"><rect class="cls-1" x="-13" width="60" height="30"/></clipPath><clipPath id="clippath-2"><polygon class="cls-1" points="17 15 47 15 47 30 17 30 -13 30 -13 15 -13 0 17 0 47 0 17 15"/></clipPath></defs><g id="Layer_1-2"><g id="uk"><g class="cls-2"><g class="cls-6"><g><path class="cls-3" d="M-13,0V30H47V0H-13Z"/><g><path d="M-13,0L47,30m0-30L-13,30"/><polygon class="cls-4" points="45.66 32.68 17 18.35 -11.66 32.68 -14.34 27.32 10.29 15 -14.34 2.68 -11.66 -2.68 17 11.65 45.66 -2.68 48.34 2.68 23.71 15 48.34 27.32 45.66 32.68"/></g><g class="cls-7"><g><path d="M-13,0L47,30m0-30L-13,30"/><polygon class="cls-5" points="46.11 31.79 17 17.24 -12.11 31.79 -13.89 28.21 12.53 15 -13.89 1.79 -12.11 -1.79 17 12.76 46.11 -1.79 47.89 1.79 21.47 15 47.89 28.21 46.11 31.79"/></g></g><g><path d="M17,0V30M-13,15H47"/><polygon class="cls-4" points="22 30 12 30 12 20 -13 20 -13 10 12 10 12 0 22 0 22 10 47 10 47 20 22 20 22 30"/></g><g><path d="M17,0V30M-13,15H47"/><polygon class="cls-5" points="20 30 14 30 14 18 -13 18 -13 12 14 12 14 0 20 0 20 12 47 12 47 18 20 18 20 30"/></g></g></g></g></g></g></svg>